<svg xmlns="http://www.w3.org/2000/svg" width="24" height="24" viewBox="0 0 24 24">
  <g id="user" transform="translate(-1856 -32)">
    <rect id="사각형_3" data-name="사각형 3" width="24" height="24" transform="translate(1856 32)" fill="none"/>
    <g id="user_path" transform="translate(1844 22.192)">
      <path id="패스_16" data-name="패스 16" d="M31.332,56.252H17.394A1.394,1.394,0,0,1,16,54.858v-.466a4.858,4.858,0,0,1,3.153-4.549,14.844,14.844,0,0,1,10.419,0,4.858,4.858,0,0,1,3.153,4.549v.466A1.394,1.394,0,0,1,31.332,56.252Z" transform="translate(0 -24.312)" fill="none" stroke="#707070" stroke-linecap="round" stroke-linejoin="round" stroke-width="2"/>
      <path id="패스_17" data-name="패스 17" d="M29.02,21.091a4.651,4.651,0,0,0,6.673-3.164l.078-.364a4.944,4.944,0,0,0-.875-4l-.125-.167a4.527,4.527,0,0,0-7.251,0l-.125.167a4.944,4.944,0,0,0-.875,4l.078.364A4.651,4.651,0,0,0,29.02,21.091Z" transform="translate(-6.783)" fill="none" stroke="#707070" stroke-linecap="round" stroke-linejoin="round" stroke-width="2"/>
    </g>
  </g>
</svg>
